<svg xmlns="http://www.w3.org/2000/svg" viewBox="0 0 512 512">
  <defs>
    <linearGradient id="bg" x1="0%" y1="0%" x2="100%" y2="100%">
      <stop offset="0%" style="stop-color:#ff6b4a"/>
      <stop offset="50%" style="stop-color:#eb5a3c"/>
      <stop offset="100%" style="stop-color:#d44a2c"/>
    </linearGradient>
    <linearGradient id="sparkle" x1="0%" y1="0%" x2="100%" y2="100%">
      <stop offset="0%" style="stop-color:#ffffff"/>
      <stop offset="100%" style="stop-color:#ffe0d0"/>
    </linearGradient>
  </defs>

  <!-- Background -->
  <rect width="512" height="512" rx="108" fill="url(#bg)"/>

  <!-- Main sparkle - 4 pointed star -->
  <path d="M256 80 L280 200 L400 224 L280 248 L256 368 L232 248 L112 224 L232 200 Z" fill="url(#sparkle)"/>

  <!-- Small sparkles -->
  <path d="M380 100 L390 130 L420 140 L390 150 L380 180 L370 150 L340 140 L370 130 Z" fill="white" opacity="0.9"/>
  <path d="M132 320 L142 350 L172 360 L142 370 L132 400 L122 370 L92 360 L122 350 Z" fill="white" opacity="0.8"/>
  <path d="M400 340 L407 360 L427 367 L407 374 L400 394 L393 374 L373 367 L393 360 Z" fill="white" opacity="0.7"/>
</svg>
